Coordinates
version=1
nRows=19
nColumns=63
inDegrees=yes

Units are S.I. units (second, meters, Newtons, ...)
If the header above contains a line with 'inDegrees', this indicates whether rotational values are in degrees (yes) or radians (no).

endheader
time	pelvis_tilt	pelvis_list	pelvis_rotation	pelvis_tx	pelvis_ty	pelvis_tz	hip_flexion_r	hip_adduction_r	hip_rotation_r	knee_angle_r	knee_angle_r_beta	ankle_angle_r	subtalar_angle_r	mtp_angle_r	hip_flexion_l	hip_adduction_l	hip_rotation_l	knee_angle_l	knee_angle_l_beta	ankle_angle_l	subtalar_angle_l	mtp_angle_l	L5_S1_Flex_Ext	L5_S1_Lat_Bending	L5_S1_axial_rotation	L4_L5_Flex_Ext	L4_L5_Lat_Bending	L4_L5_axial_rotation	L3_L4_Flex_Ext	L3_L4_Lat_Bending	L3_L4_axial_rotation	L2_L3_Flex_Ext	L2_L3_Lat_Bending	L2_L3_axial_rotation	L1_L2_Flex_Ext	L1_L2_Lat_Bending	L1_L2_axial_rotation	L1_T12_Flex_Ext	L1_T12_Lat_Bending	L1_T12_axial_rotation	Abs_r3	Abs_r2	Abs_r1	Abs_t1	Abs_t2	neck_flexion	neck_bending	neck_rotation	arm_flex_r	arm_add_r	arm_rot_r	elbow_flex_r	pro_sup_r	wrist_flex_r	wrist_dev_r	arm_flex_l	arm_add_l	arm_rot_l	elbow_flex_l	pro_sup_l	wrist_flex_l	wrist_dev_l
0.711864	8.054598	-1.337013	89.831633	-0.117205	0.767274	0.665073	3.845965	3.941863	-5.979107	16.802761	0.293264	29.771911	2.900442	0.000000	0.108568	-5.997523	-6.275485	9.492616	0.165677	34.669291	8.516970	0.000000	-0.441246	1.327318	2.031620	-0.819438	1.765332	2.158596	-0.724923	3.227240	2.158596	-0.504300	3.227240	1.777667	-0.409741	2.706666	1.650691	-0.252128	2.056015	1.523715	-3.151777	15.014883	11.299259	0.000000	0.000000	7.033880	-8.052588	15.498375	-3.674152	-23.661036	38.312093	21.112939	67.752585	-7.593037	-0.206168	18.389900	-12.153210	7.419174	129.302672	87.981741	-4.431155	22.473973
0.728814	8.139191	-1.374103	90.212460	-0.117834	0.766631	0.664893	4.121425	4.033240	-5.867615	17.349013	0.302797	29.818467	1.939141	0.000000	0.347972	-6.115828	-6.236963	9.873733	0.172329	35.056769	9.112235	0.000000	-0.450285	1.342202	1.899039	-0.836225	1.785128	2.017729	-0.739773	3.263430	2.017729	-0.514631	3.263430	1.661659	-0.418135	2.737018	1.542969	-0.257293	2.079071	1.424279	-3.216342	15.183256	10.561886	0.000000	0.000000	6.338444	-8.229157	17.027505	-3.692053	-23.778784	46.095847	19.048306	62.459328	-6.936893	-1.113959	21.723569	-11.943846	5.730434	132.309931	88.142018	-1.129870	23.334431
0.745763	8.149020	-1.439210	90.579820	-0.118268	0.765987	0.664813	4.390283	4.050682	-5.856949	17.824547	0.311097	29.881231	1.155707	0.000000	0.641584	-6.169785	-6.209523	10.277230	0.179372	35.452706	9.666891	0.000000	-0.456343	1.341339	1.775448	-0.847475	1.783980	1.886413	-0.749726	3.261331	1.886413	-0.521555	3.261331	1.553517	-0.423760	2.735258	1.442551	-0.260754	2.077734	1.331586	-3.259614	15.173491	9.874507	0.000000	0.000000	5.837330	-8.319616	18.427607	-3.549090	-23.747080	54.474483	16.906319	55.999944	-6.260704	-2.146828	25.190272	-11.918047	4.377533	134.788417	88.259179	1.955092	24.206139
0.762712	8.093806	-1.529631	90.929880	-0.118521	0.765365	0.664814	4.639174	4.005065	-5.914018	18.209370	0.317813	29.950335	0.528854	0.000000	0.972952	-6.165600	-6.194321	10.678876	0.186382	35.842562	10.187161	0.000000	-0.459957	1.325953	1.655629	-0.854186	1.763518	1.759106	-0.755663	3.223923	1.759106	-0.525685	3.223923	1.448676	-0.427116	2.703884	1.345199	-0.262819	2.053902	1.241722	-3.285427	14.999450	9.208114	0.000000	0.000000	5.538823	-8.310346	19.713934	-3.228879	-23.580985	63.446867	14.703992	48.391670	-5.567406	-3.323233	28.655287	-12.041189	3.249981	136.732898	88.318652	4.783426	24.999702
0.779661	7.992742	-1.642826	91.250051	-0.118623	0.764778	0.664869	4.862987	3.914013	-6.035718	18.497034	0.322834	30.018951	0.071510	0.000000	1.327696	-6.120978	-6.231530	11.067411	0.193163	36.228820	10.718018	0.000000	-0.461801	1.299403	1.540170	-0.857610	1.728206	1.636431	-0.758692	3.159369	1.636431	-0.527792	3.159369	1.347649	-0.428828	2.649743	1.251388	-0.263873	2.012776	1.155128	-3.298596	14.699109	8.565964	0.000000	0.000000	5.489628	-8.235598	20.892870	-2.780258	-23.299843	72.470939	12.557294	40.123880	-4.853949	-4.568969	31.985935	-12.309555	2.354186	138.206497	88.274088	7.034434	25.765068
0.796610	7.870835	-1.781757	91.503726	-0.118628	0.764246	0.664933	5.063557	3.792796	-6.232731	18.686380	0.326139	30.089172	-0.139988	0.000000	1.676783	-6.050239	-6.324613	11.398720	0.198945	36.589459	11.237996	0.000000	-0.461580	1.267117	1.433069	-0.857200	1.685265	1.522635	-0.758330	3.080867	1.522635	-0.527540	3.080867	1.253935	-0.428623	2.583904	1.164368	-0.263747	1.962764	1.074802	-3.297020	14.333876	7.970298	0.000000	0.000000	5.707708	-8.161253	21.985164	-2.243183	-22.943852	81.464410	10.509909	31.406935	-4.166883	-5.872652	35.021047	-12.653893	1.563050	139.297509	88.136353	8.909167	26.550131
0.813559	7.755698	-1.934298	91.645082	-0.118529	0.763802	0.664903	5.213630	3.671926	-6.448526	18.756945	0.327370	30.149855	-0.094354	0.000000	1.969168	-5.970309	-6.431421	11.628254	0.202951	36.892542	11.639460	0.000000	-0.460029	1.234714	1.336896	-0.854321	1.642169	1.420452	-0.755782	3.002083	1.420452	-0.525768	3.002083	1.169784	-0.427183	2.517828	1.086228	-0.262861	1.912571	1.002672	-3.285944	13.967327	7.435416	0.000000	0.000000	6.191524	-8.080709	23.117192	-1.647992	-22.567957	90.263904	8.633010	22.546099	-3.506762	-7.146257	37.606036	-13.034628	0.770969	140.166685	87.908340	10.623500	27.597208
0.830508	7.665472	-2.097104	91.693423	-0.118391	0.763455	0.664740	5.308408	3.583031	-6.576842	18.705251	0.326468	30.161956	0.014643	0.000000	2.193662	-5.885168	-6.365549	11.739326	0.204890	37.101965	11.707479	0.000000	-0.456553	1.206426	1.250931	-0.847865	1.604547	1.329114	-0.750071	2.933304	1.329114	-0.521795	2.933304	1.094564	-0.423955	2.460144	1.016381	-0.260874	1.868754	0.938198	-3.261113	13.647332	6.957301	0.000000	0.000000	6.912833	-8.026056	24.299009	-1.119577	-22.159823	98.016028	7.070521	14.514260	-2.847746	-8.210823	39.641976	-13.440734	0.029447	140.916643	87.512811	12.039645	28.884777
0.847458	7.606965	-2.272698	91.697201	-0.118263	0.763214	0.664417	5.337950	3.524220	-6.741582	18.512328	0.323101	30.137001	0.290046	0.000000	2.365232	-5.816519	-6.259693	11.748793	0.205055	37.238878	11.669578	0.000000	-0.449117	1.184543	1.168015	-0.834055	1.575442	1.241015	-0.737855	2.880098	1.241015	-0.513296	2.880098	1.022013	-0.417050	2.415520	0.949012	-0.256626	1.834857	0.876011	-3.207999	13.399788	6.496147	0.000000	0.000000	7.801543	-8.015701	25.549036	-0.659865	-21.796664	104.751662	5.852038	7.217335	-2.285657	-9.136887	41.070560	-13.879697	-0.609618	141.634321	86.966026	12.997716	30.343300
0.864407	7.568262	-2.414256	91.610771	-0.118115	0.763127	0.663869	5.264692	3.474442	-6.950155	18.207562	0.317782	30.103143	0.815357	0.000000	2.404600	-5.740998	-6.032761	11.615185	0.202723	37.266237	11.365270	0.000000	-0.442547	1.168468	1.107176	-0.821853	1.554063	1.176374	-0.727060	2.841013	1.176374	-0.505787	2.841013	0.968779	-0.410949	2.382740	0.899580	-0.252871	1.809957	0.830382	-3.161066	13.217946	6.157779	0.000000	0.000000	8.761032	-8.067916	26.728873	-0.376890	-21.445966	109.852263	5.045701	1.696007	-1.813303	-9.777861	41.950932	-14.291535	-1.090636	142.305519	86.462370	13.618879	31.836014
0.881356	7.533370	-2.522641	91.481298	-0.117945	0.763178	0.663149	5.093815	3.425926	-7.184267	17.792563	0.310539	30.068825	1.500843	0.000000	2.337819	-5.652571	-5.715807	11.368056	0.198410	37.184115	10.872779	0.000000	-0.436724	1.155922	1.068666	-0.811040	1.537377	1.135458	-0.717494	2.810510	1.135458	-0.499132	2.810510	0.935083	-0.405542	2.357157	0.868291	-0.249544	1.790524	0.801500	-3.119477	13.076024	5.943600	0.000000	0.000000	9.740134	-8.174057	27.775152	-0.252953	-21.155047	113.399735	4.608010	-2.160021	-1.524059	-10.201285	42.410015	-14.654330	-1.386981	142.881860	86.104102	13.999962	33.148559
0.898305	7.492217	-2.591058	91.288901	-0.117687	0.763350	0.662271	4.833814	3.374444	-7.389786	17.294795	0.301851	30.035617	2.294738	0.000000	2.157135	-5.547812	-5.377784	11.012320	0.192201	37.007327	10.252471	0.000000	-0.433612	1.144364	1.060999	-0.805261	1.522004	1.127312	-0.712381	2.782407	1.127312	-0.495575	2.782407	0.928374	-0.402652	2.333587	0.862062	-0.247766	1.772620	0.795749	-3.097248	12.945274	5.900959	0.000000	0.000000	10.691596	-8.367365	28.567959	-0.262100	-20.937868	115.446467	4.483865	-4.202300	-1.542470	-10.470483	42.574728	-14.943225	-1.441353	143.290711	85.865100	14.040082	34.017609
0.915254	7.436886	-2.634412	91.065064	-0.117323	0.763580	0.661294	4.512450	3.322808	-7.523704	16.733656	0.292057	29.999653	3.084243	0.000000	1.911910	-5.435243	-5.106436	10.604851	0.185090	36.774029	9.652070	0.000000	-0.433931	1.131412	1.080635	-0.805852	1.504778	1.148175	-0.712904	2.750915	1.148175	-0.495939	2.750915	0.945556	-0.402948	2.307175	0.878016	-0.247948	1.752557	0.810477	-3.099522	12.798756	6.010170	0.000000	0.000000	11.609825	-8.623717	29.070276	-0.426291	-20.769733	115.630705	4.690832	-4.234406	-1.845321	-10.608292	42.586267	-15.128997	-1.285676	143.498432	85.747989	13.884115	34.344032
0.932203	7.377658	-2.667889	90.795460	-0.116847	0.763813	0.660238	4.161342	3.277478	-7.591914	16.142924	0.281747	29.961683	3.875095	0.000000	1.626702	-5.323639	-4.887316	10.166992	0.177447	36.504298	9.043029	0.000000	-0.438120	1.118106	1.127547	-0.813632	1.487081	1.198019	-0.719787	2.718563	1.198019	-0.500727	2.718563	0.986604	-0.406838	2.280042	0.916132	-0.250342	1.731946	0.845660	-3.129445	12.648240	6.271080	0.000000	0.000000	12.490050	-8.944543	29.291690	-0.793070	-20.646991	113.509850	5.299030	-2.098485	-2.408756	-10.623096	42.518784	-15.187454	-0.989439	143.531687	85.734551	13.664282	34.197609
0.949153	7.302321	-2.716601	90.451240	-0.116258	0.763989	0.659146	3.831848	3.216455	-7.599694	15.568542	0.271722	29.943103	4.711478	0.000000	1.338332	-5.195138	-4.709637	9.722973	0.169698	36.202524	8.368822	0.000000	-0.445569	1.103468	1.198456	-0.827466	1.467613	1.273359	-0.732025	2.682973	1.273359	-0.509241	2.682973	1.048649	-0.413755	2.250193	0.973745	-0.254598	1.709273	0.898842	-3.182653	12.482656	6.665452	0.000000	0.000000	13.352227	-9.310775	29.319653	-1.384411	-20.554266	108.864543	6.321556	2.294131	-3.196617	-10.419936	42.406003	-15.178103	-0.542307	143.477054	85.780588	13.092143	33.720446
0.966102	7.212814	-2.791569	90.086764	-0.115523	0.764146	0.657956	3.519450	3.156986	-7.539637	14.988361	0.261596	29.914220	5.499020	0.000000	1.055135	-5.065730	-4.602288	9.260793	0.161631	35.884859	7.759744	0.000000	-0.453385	1.085833	1.282190	-0.841982	1.444157	1.362327	-0.744866	2.640093	1.362327	-0.518174	2.640093	1.121917	-0.421013	2.214230	1.041780	-0.259064	1.681955	0.961643	-3.238485	12.283156	7.131159	0.000000	0.000000	14.171956	-9.702527	29.202986	-1.571601	-20.214649	109.814130	6.135799	2.272936	-3.548425	-10.922937	42.302847	-15.037764	-0.193903	143.416999	85.891109	13.111794	33.473453
0.983051	7.116974	-2.893214	89.670572	-0.114728	0.764230	0.656737	3.254826	3.087296	-7.458612	14.448030	0.252166	29.913112	6.327682	0.000000	0.789849	-4.929514	-4.519175	8.795483	0.153510	35.579543	7.117427	0.000000	-0.461901	1.068064	1.382858	-0.857797	1.420525	1.469287	-0.758858	2.596891	1.469287	-0.527907	2.596891	1.210001	-0.428922	2.177997	1.123572	-0.263930	1.654432	1.037144	-3.299316	12.082156	7.691042	0.000000	0.000000	14.947728	-10.092592	29.015443	-1.754452	-19.850121	110.794504	5.880613	2.246282	-3.853148	-11.511606	42.242060	-14.791214	0.108561	143.353611	86.039932	13.507090	33.358172
1.000000	7.013167	-3.015928	89.208935	-0.113861	0.764245	0.655479	3.044753	3.012936	-7.302656	13.971276	0.243845	29.939018	7.106120	0.000000	0.539140	-4.787938	-4.488135	8.329526	0.145378	35.309530	6.492456	0.000000	-0.470169	1.049511	1.493928	-0.873151	1.395849	1.587298	-0.772441	2.551780	1.587298	-0.537356	2.551780	1.307187	-0.436599	2.140162	1.213816	-0.268655	1.625692	1.120446	-3.358370	11.872274	8.308777	0.000000	0.000000	15.613457	-10.414074	28.871060	-1.908603	-19.457639	112.040412	5.534702	2.173992	-4.202017	-12.136760	42.213077	-14.512048	0.417367	143.303893	86.183562	13.908206	33.315904
1.016949	6.916117	-3.142676	88.757183	-0.112992	0.764214	0.654195	2.873288	2.940270	-7.165124	13.566853	0.236786	30.000574	7.864665	0.000000	0.303549	-4.655748	-4.451565	7.881339	0.137555	35.087106	5.865718	0.000000	-0.477313	1.031576	1.611588	-0.886418	1.371996	1.712312	-0.784178	2.508173	1.712312	-0.545521	2.508173	1.410139	-0.443233	2.103589	1.309415	-0.272737	1.597911	1.208691	-3.409401	11.669389	8.963166	0.000000	0.000000	16.096494	-10.672513	28.719146	-2.049155	-19.049861	113.183268	5.145203	2.100231	-4.621029	-12.888321	42.230594	-14.202691	0.760091	143.232215	86.264605	14.278463	33.316404
